<svg xmlns="http://www.w3.org/2000/svg" viewBox="0 0 64 64" width="100px" height="100px"><linearGradient id="qHhJ~0_ezIWTkRsd9Ga~aa" x1="39.496" x2="39.496" y1="27.417" y2="34.588" gradientUnits="userSpaceOnUse" spreadMethod="reflect"><stop offset="0" stop-color="#6dc7ff"/><stop offset="1" stop-color="#e6abff"/></linearGradient><path fill="url(#qHhJ~0_ezIWTkRsd9Ga~aa)" d="M35,33.004v-2.002C35,29.344,36.207,28,37.866,28h1.928c0.668,0,1.292,0.334,1.663,0.89 l2.366,3.55C44.267,33.107,43.789,34,42.988,34h-7.129C35.309,34,35,33.554,35,33.004z"/><linearGradient id="qHhJ~0_ezIWTkRsd9Ga~ab" x1="24.435" x2="24.435" y1="27.417" y2="34.588" gradientUnits="userSpaceOnUse" spreadMethod="reflect"><stop offset="0" stop-color="#6dc7ff"/><stop offset="1" stop-color="#e6abff"/></linearGradient><path fill="url(#qHhJ~0_ezIWTkRsd9Ga~ab)" d="M29,33.004v-2.002C29,29.344,27.656,28,25.998,28H24.07c-0.668,0-1.292,0.334-1.663,0.89 l-2.366,3.55C19.596,33.107,20.074,34,20.876,34h7.129C28.555,34,29,33.554,29,33.004z"/><linearGradient id="qHhJ~0_ezIWTkRsd9Ga~ac" x1="39.496" x2="39.496" y1="5.5" y2="59.021" gradientUnits="userSpaceOnUse" spreadMethod="reflect"><stop offset="0" stop-color="#1a6dff"/><stop offset="1" stop-color="#c822ff"/></linearGradient><path fill="url(#qHhJ~0_ezIWTkRsd9Ga~ac)" d="M35.858,35h7.129c0.74,0,1.417-0.405,1.767-1.059c0.35-0.652,0.312-1.44-0.099-2.057 l-2.367-3.55C41.731,27.499,40.799,27,39.794,27h-1.928C35.698,27,34,28.758,34,31.003v2.002C34,34.161,34.781,35,35.858,35z M36,31.003C36,29.861,36.803,29,37.866,29h1.928c0.334,0,0.645,0.166,0.83,0.444L42.987,33H36V31.003z"/><linearGradient id="qHhJ~0_ezIWTkRsd9Ga~ad" x1="24.436" x2="24.436" y1="5.5" y2="59.021" gradientUnits="userSpaceOnUse" spreadMethod="reflect"><stop offset="0" stop-color="#1a6dff"/><stop offset="1" stop-color="#c822ff"/></linearGradient><path fill="url(#qHhJ~0_ezIWTkRsd9Ga~ad)" d="M20.876,35h7.129C29.105,35,30,34.105,30,33.005v-2.002C30,28.796,28.205,27,25.998,27H24.07 c-1.006,0-1.938,0.499-2.495,1.335l-2.366,3.549c-0.411,0.616-0.449,1.404-0.101,2.058C19.458,34.595,20.135,35,20.876,35z M23.239,29.444C23.425,29.166,23.735,29,24.07,29h1.928C27.102,29,28,29.898,28,31.003V33l-7.127-0.006L23.239,29.444z"/><linearGradient id="qHhJ~0_ezIWTkRsd9Ga~ae" x1="32" x2="32" y1="5.5" y2="59.021" gradientUnits="userSpaceOnUse" spreadMethod="reflect"><stop offset="0" stop-color="#1a6dff"/><stop offset="1" stop-color="#c822ff"/></linearGradient><path fill="url(#qHhJ~0_ezIWTkRsd9Ga~ae)" d="M50.736,29.303c-0.407-1.141-1-2.191-1.736-3.122V25c0-7.878-5.422-14.682-13-16.51V8 c0-1.103-0.897-2-2-2h-4c-1.103,0-2,0.897-2,2v0.49C20.422,10.318,15,17.122,15,25v1.183c-0.738,0.933-1.332,1.988-1.742,3.135 l-6.347,18.78l0.215,0.387C7.342,48.874,12.634,58,32,58s24.658-9.126,24.874-9.515l0.215-0.387L50.736,29.303z M46.965,24.213 c-0.76-0.57-1.587-1.055-2.485-1.416c-2.737-1.1-5.791-1.035-8.48,0.134V10.543C42.19,12.248,46.627,17.76,46.965,24.213z M34,8 v15.896l-2,1l-2-1V8H34z M28,10.543v2.105c-3.458,1.116-6.288,3.596-7.821,6.935l1.818,0.834c1.206-2.627,3.355-4.636,6.003-5.665 v8.179c-2.69-1.169-5.745-1.235-8.48-0.134c-0.897,0.361-1.725,0.846-2.485,1.417C17.373,17.76,21.81,12.248,28,10.543z M15.146,29.975c0.397-1.112,1.013-2.114,1.785-2.975H17v-0.079c0.899-0.979,2.006-1.763,3.265-2.269 c2.387-0.958,5.076-0.851,7.379,0.302L32,27.132l4.356-2.178c2.303-1.151,4.992-1.259,7.379-0.302 c1.259,0.506,2.367,1.291,3.265,2.268V27h0.069c0.77,0.858,1.384,1.855,1.778,2.959l4.318,12.776 c-1.765,1.586-4.752,3.543-9.539,4.846c-0.088-0.162-0.189-0.315-0.305-0.457l3.633-6.644l-1.754-0.959l-3.58,6.546 C41.421,46.024,41.213,46,41,46c-0.311,0-0.605,0.061-0.888,0.149L37,42v0h0l-1.032-1.376C35.804,38.446,34.262,37,32,37 s-3.804,1.446-3.968,3.624L27,42h0v0.001l-3.111,4.149C23.606,46.061,23.311,46,23,46c-0.204,0-0.402,0.021-0.594,0.06l-3.529-6.43 l-1.754,0.963l3.573,6.51c-0.123,0.149-0.23,0.308-0.322,0.478c-4.788-1.303-7.774-3.26-9.539-4.846L15.146,29.975z M38.036,48.64 c-0.343,0.041-0.686,0.081-1.036,0.114v-3.422l1.505,2.006C38.251,47.719,38.094,48.164,38.036,48.64z M25.964,48.64 c-0.058-0.475-0.214-0.92-0.468-1.301L27,45.333v3.421C26.649,48.721,26.307,48.681,25.964,48.64z M23,48c0.552,0,1,0.448,1,1 s-0.448,1-1,1s-1-0.448-1-1S22.448,48,23,48z M29,42.666L29.5,42H31v6.971c-0.676-0.012-1.343-0.035-2-0.07V42.666z M30.192,40 c0.403-0.884,1.344-1,1.808-1s1.404,0.116,1.808,1H30.192z M33,42h1.5l0.5,0.666V48.9c-0.656,0.036-1.324,0.059-2,0.07V42z M41,48 c0.552,0,1,0.448,1,1s-0.448,1-1,1s-1-0.448-1-1S40.448,48,41,48z M32,56c-15.976,0-21.738-6.562-22.896-8.146l1.04-3.078 c2.02,1.651,5.18,3.531,9.912,4.789C20.323,50.95,21.539,52,23,52c1.064,0,1.995-0.561,2.528-1.399 c2.043,0.251,4.212,0.385,6.472,0.385c2.261,0,4.43-0.134,6.472-0.385C39.005,51.439,39.936,52,41,52 c1.461,0,2.677-1.05,2.943-2.435c4.732-1.258,7.892-3.138,9.912-4.789l1.04,3.078C53.731,49.446,47.966,56,32,56z"/></svg>